<?xml version="1.0" encoding="UTF-8"?>
<svg xmlns="http://www.w3.org/2000/svg" viewBox="0 0 110 220" width="110" height="220">
  <ellipse cx="55" cy="212" rx="30" ry="3" fill="#000000" opacity="0.14"/>
  <circle cx="55" cy="30" r="19" fill="#E8D4B8"/>
  <circle cx="55" cy="30" r="19" fill="none" stroke="#D4B896" stroke-width="0.5" opacity="0.5"/>
  <circle cx="47" cy="29" r="1.8" fill="#3D2817"/>
  <circle cx="63" cy="29" r="1.8" fill="#3D2817"/>
  <circle cx="47.5" cy="28" r="0.6" fill="#FFFFFF" opacity="0.7"/>
  <circle cx="63.5" cy="28" r="0.6" fill="#FFFFFF" opacity="0.7"/>
  <path d="M 44 26 Q 47 24 50 26" fill="none" stroke="#3D2817" stroke-width="0.7" stroke-linecap="round"/>
  <path d="M 60 26 Q 63 24 66 26" fill="none" stroke="#3D2817" stroke-width="0.7" stroke-linecap="round"/>
  <path d="M 49 40 Q 55 43 61 40" stroke="#B8906C" stroke-width="1.2" fill="none" stroke-linecap="round"/>
  <ellipse cx="55" cy="16" rx="15" ry="13" fill="#6B5A48"/>
  <path d="M 40 24 Q 36 35 37 50" fill="#6B5A48" stroke="#3D2817" stroke-width="0.3" opacity="0.6"/>
  <path d="M 70 24 Q 74 35 73 50" fill="#6B5A48" stroke="#3D2817" stroke-width="0.3" opacity="0.6"/>
  <path d="M 42 16 L 38 14 Q 55 10 72 14 L 68 16 Q 55 19 42 16" fill="#C4A57A" stroke="#9A7A5A" stroke-width="0.4"/>
  <rect x="50" y="46" width="10" height="8" fill="#E8D4B8" stroke="#D4B896" stroke-width="0.4"/>
  <path d="M 22 88 Q 22 52 55 52 Q 88 52 88 88 L 88 92 L 22 92 Z" fill="#5A7F6F" stroke="#3D5C4A" stroke-width="0.5"/>
  <path d="M 22 92 L 88 92 L 88 96 Q 88 124 55 124 Q 22 124 22 96 Z" fill="#6B7A55" stroke="#4A5A38" stroke-width="0.5"/>
  <rect x="22" y="62" width="13" height="55" rx="6" fill="#5A7F6F" stroke="#3D5C4A" stroke-width="0.4"/>
  <rect x="75" y="62" width="13" height="55" rx="6" fill="#5A7F6F" stroke="#3D5C4A" stroke-width="0.4"/>
  <circle cx="28" cy="120" r="5" fill="#E8D4B8" stroke="#D4B896" stroke-width="0.4"/>
  <circle cx="82" cy="120" r="5" fill="#E8D4B8" stroke="#D4B896" stroke-width="0.4"/>
  <rect x="40" y="124" width="14" height="56" rx="2" fill="#6B7A55" stroke="#4A5A38" stroke-width="0.4"/>
  <rect x="56" y="124" width="14" height="56" rx="2" fill="#6B7A55" stroke="#4A5A38" stroke-width="0.4"/>
  <ellipse cx="47" cy="186" rx="9" ry="6" fill="#5C4A3A" stroke="#000000" stroke-width="0.3" opacity="0.85"/>
  <ellipse cx="63" cy="186" rx="9" ry="6" fill="#5C4A3A" stroke="#000000" stroke-width="0.3" opacity="0.85"/>
  <path d="M 80 65 L 90 70 L 89 110 L 79 108 Z" fill="#4A9ACE" stroke="#2D7AAE" stroke-width="0.4"/>
  <path d="M 80 70 L 89 72" fill="none" stroke="#2D7AAE" stroke-width="0.3" opacity="0.5"/>
  <path d="M 80 80 L 89 82" fill="none" stroke="#2D7AAE" stroke-width="0.3" opacity="0.5"/>
</svg>
