<?xml version="1.0" encoding="UTF-8"?>
<svg xmlns="http://www.w3.org/2000/svg" viewBox="0 0 110 220" width="110" height="220">
  <ellipse cx="55" cy="212" rx="30" ry="3" fill="#000000" opacity="0.14"/>
  <circle cx="55" cy="30" r="19" fill="#7D5840"/>
  <circle cx="55" cy="30" r="19" fill="none" stroke="#5D3D28" stroke-width="0.5" opacity="0.5"/>
  <ellipse cx="55" cy="22" rx="16" ry="10" fill="#1A1410"/>
  <path d="M 36 26 Q 32 38 35 50" fill="#1A1410" stroke="#0A0707" stroke-width="0.3" opacity="0.7"/>
  <path d="M 74 26 Q 78 38 75 50" fill="#1A1410" stroke="#0A0707" stroke-width="0.3" opacity="0.7"/>
  <ellipse cx="55" cy="14" rx="26" ry="6" fill="#D4B896" stroke="#A88C6A" stroke-width="0.4"/>
  <ellipse cx="55" cy="14" rx="14" ry="5" fill="#C4A57A"/>
  <ellipse cx="55" cy="14" rx="9" ry="3" fill="#8B6F47" opacity="0.4"/>
  <circle cx="47" cy="29" r="1.8" fill="#1A0F08"/>
  <circle cx="63" cy="29" r="1.8" fill="#1A0F08"/>
  <circle cx="47.5" cy="28" r="0.6" fill="#FFFFFF" opacity="0.7"/>
  <circle cx="63.5" cy="28" r="0.6" fill="#FFFFFF" opacity="0.7"/>
  <path d="M 44 26 Q 47 24 50 26" fill="none" stroke="#1A0F08" stroke-width="0.7" stroke-linecap="round"/>
  <path d="M 60 26 Q 63 24 66 26" fill="none" stroke="#1A0F08" stroke-width="0.7" stroke-linecap="round"/>
  <path d="M 49 40 Q 55 43 61 40" stroke="#5D3D28" stroke-width="1.2" fill="none" stroke-linecap="round"/>
  <rect x="36" y="52" width="38" height="33" fill="#6B8F7F" stroke="#4A6B5C" stroke-width="0.5"/>
  <path d="M 42 54 Q 55 50 68 54" fill="#4A6B5C" opacity="0.3"/>
  <line x1="55" y1="60" x2="55" y2="80" stroke="#4A6B5C" stroke-width="0.3" opacity="0.4"/>
  <ellipse cx="92" cy="105" rx="10" ry="14" fill="#C4A57A" stroke="#8B6F47" stroke-width="0.5"/>
  <path d="M 84 95 Q 92 92 100 95" fill="none" stroke="#8B6F47" stroke-width="0.6"/>
  <path d="M 84 100 Q 92 102 100 100" fill="none" stroke="#8B6F47" stroke-width="0.4" opacity="0.5"/>
  <path d="M 84 108 Q 92 110 100 108" fill="none" stroke="#8B6F47" stroke-width="0.4" opacity="0.5"/>
  <path d="M 84 116 Q 92 118 100 116" fill="none" stroke="#8B6F47" stroke-width="0.4" opacity="0.5"/>
  <rect x="22" y="58" width="12" height="60" rx="6" fill="#6B8F7F" stroke="#4A6B5C" stroke-width="0.4"/>
  <rect x="76" y="58" width="12" height="60" rx="6" fill="#6B8F7F" stroke="#4A6B5C" stroke-width="0.4"/>
  <circle cx="28" cy="123" r="4.5" fill="#7D5840" stroke="#5D3D28" stroke-width="0.4"/>
  <circle cx="82" cy="123" r="4.5" fill="#7D5840" stroke="#5D3D28" stroke-width="0.4"/>
  <rect x="38" y="85" width="34" height="33" fill="#D4C4AE" stroke="#A88C6A" stroke-width="0.5"/>
  <line x1="55" y1="85" x2="55" y2="118" stroke="#A88C6A" stroke-width="0.3" opacity="0.4"/>
  <rect x="40" y="118" width="10" height="55" fill="#D4C4AE" stroke="#A88C6A" stroke-width="0.4"/>
  <rect x="60" y="118" width="10" height="55" fill="#D4C4AE" stroke="#A88C6A" stroke-width="0.4"/>
  <ellipse cx="45" cy="180" rx="8" ry="6" fill="#C4A57A" stroke="#8B6F47" stroke-width="0.4"/>
  <ellipse cx="65" cy="180" rx="8" ry="6" fill="#C4A57A" stroke="#8B6F47" stroke-width="0.4"/>
  <path d="M 41 178 L 49 178" stroke="#8B6F47" stroke-width="0.6"/>
  <path d="M 61 178 L 69 178" stroke="#8B6F47" stroke-width="0.6"/>
</svg>
