<?xml version="1.0" encoding="UTF-8"?>
<svg xmlns="http://www.w3.org/2000/svg" viewBox="0 0 110 220" width="110" height="220">
  <ellipse cx="55" cy="212" rx="30" ry="3" fill="#000000" opacity="0.14"/>
  <circle cx="55" cy="30" r="19" fill="#7D5840"/>
  <circle cx="55" cy="30" r="19" fill="none" stroke="#5D3D28" stroke-width="0.5" opacity="0.5"/>
  <circle cx="47" cy="29" r="1.8" fill="#3D2817"/>
  <circle cx="63" cy="29" r="1.8" fill="#3D2817"/>
  <circle cx="47.5" cy="28" r="0.6" fill="#FFFFFF" opacity="0.7"/>
  <circle cx="63.5" cy="28" r="0.6" fill="#FFFFFF" opacity="0.7"/>
  <path d="M 44 26 Q 47 24 50 26" fill="none" stroke="#3D2817" stroke-width="0.7" stroke-linecap="round"/>
  <path d="M 60 26 Q 63 24 66 26" fill="none" stroke="#3D2817" stroke-width="0.7" stroke-linecap="round"/>
  <path d="M 49 40 Q 55 43 61 40" stroke="#B8906C" stroke-width="1.2" fill="none" stroke-linecap="round"/>
  <ellipse cx="55" cy="22" rx="16" ry="10" fill="#1A1410"/>
  <path d="M 36 26 Q 32 38 35 50" fill="#1A1410" stroke="#0A0707" stroke-width="0.3" opacity="0.7"/>
  <path d="M 74 26 Q 78 38 75 50" fill="#1A1410" stroke="#0A0707" stroke-width="0.3" opacity="0.7"/>
  <ellipse cx="55" cy="14" rx="26" ry="6" fill="#D4B896" stroke="#A88C6A" stroke-width="0.4"/>
  <ellipse cx="55" cy="14" rx="14" ry="5" fill="#C4A57A"/>
  <rect x="50" y="46" width="10" height="8" fill="#7D5840" stroke="#5D3D28" stroke-width="0.4"/>
  <path d="M 22 88 Q 22 52 55 52 Q 88 52 88 88 L 88 92 L 22 92 Z" fill="#6B8F7F" stroke="#4A6B5C" stroke-width="0.5"/>
  <path d="M 22 92 L 88 92 L 88 96 Q 88 124 55 124 Q 22 124 22 96 Z" fill="#D4C4AE" stroke="#A88C6A" stroke-width="0.5"/>
  <ellipse cx="93" cy="105" rx="9" ry="14" fill="#C4A57A" stroke="#8B6F47" stroke-width="0.5"/>
  <path d="M 86 95 Q 93 92 100 95" fill="none" stroke="#8B6F47" stroke-width="0.6"/>
  <path d="M 86 105 Q 93 107 100 105" fill="none" stroke="#8B6F47" stroke-width="0.4" opacity="0.5"/>
</svg>
