<?xml version="1.0" encoding="UTF-8"?>
<svg xmlns="http://www.w3.org/2000/svg" viewBox="0 0 110 220" width="110" height="220">
  <ellipse cx="55" cy="212" rx="30" ry="3" fill="#000000" opacity="0.14"/>
  <circle cx="55" cy="30" r="19" fill="#E8D4B8"/>
  <circle cx="55" cy="30" r="19" fill="none" stroke="#D4B896" stroke-width="0.5" opacity="0.5"/>
  <ellipse cx="55" cy="16" rx="16" ry="11" fill="#5C4A3A"/>
  <path d="M 38 22 Q 35 32 37 46" fill="#5C4A3A" stroke="#3D3024" stroke-width="0.3" opacity="0.7"/>
  <path d="M 72 22 Q 75 32 73 46" fill="#5C4A3A" stroke="#3D3024" stroke-width="0.3" opacity="0.7"/>
  <path d="M 40 18 Q 50 12 60 14 Q 68 16 72 22 L 70 24 Q 60 18 50 19 Q 44 20 40 24 Z" fill="#3D3024" opacity="0.5"/>
  <circle cx="47" cy="29" r="3" fill="none" stroke="#1A1A1A" stroke-width="1"/>
  <circle cx="63" cy="29" r="3" fill="none" stroke="#1A1A1A" stroke-width="1"/>
  <line x1="50" y1="29" x2="60" y2="29" stroke="#1A1A1A" stroke-width="0.7"/>
  <circle cx="47" cy="29" r="1.5" fill="#3D2817"/>
  <circle cx="63" cy="29" r="1.5" fill="#3D2817"/>
  <circle cx="47.4" cy="28.5" r="0.5" fill="#FFFFFF" opacity="0.8"/>
  <circle cx="63.4" cy="28.5" r="0.5" fill="#FFFFFF" opacity="0.8"/>
  <path d="M 44 25 Q 47 23 50 25" fill="none" stroke="#3D2817" stroke-width="0.6" stroke-linecap="round"/>
  <path d="M 60 25 Q 63 23 66 25" fill="none" stroke="#3D2817" stroke-width="0.6" stroke-linecap="round"/>
  <path d="M 49 40 Q 55 43 61 40" stroke="#B8906C" stroke-width="1.1" fill="none" stroke-linecap="round"/>
  <rect x="36" y="52" width="38" height="33" fill="#FFFFFF" stroke="#C4C4C4" stroke-width="0.4"/>
  <path d="M 30 52 L 36 52 L 36 90 L 28 90 Z" fill="#556B7F" stroke="#3D4A5C" stroke-width="0.4"/>
  <path d="M 80 52 L 74 52 L 74 90 L 82 90 Z" fill="#556B7F" stroke="#3D4A5C" stroke-width="0.4"/>
  <path d="M 50 50 L 60 50 L 58 60 L 52 60 Z" fill="#1A1A20" opacity="0.7"/>
  <path d="M 73 80 L 90 95 L 88 110 L 71 95 Z" fill="#A88C6A" stroke="#7D6648" stroke-width="0.4"/>
  <path d="M 73 80 L 76 78 L 92 92 L 90 95" fill="none" stroke="#7D6648" stroke-width="0.5"/>
  <rect x="22" y="58" width="12" height="60" rx="6" fill="#556B7F" stroke="#3D4A5C" stroke-width="0.4"/>
  <rect x="76" y="58" width="12" height="60" rx="6" fill="#556B7F" stroke="#3D4A5C" stroke-width="0.4"/>
  <circle cx="28" cy="123" r="4.5" fill="#E8D4B8" stroke="#D4B896" stroke-width="0.4"/>
  <circle cx="82" cy="123" r="4.5" fill="#E8D4B8" stroke="#D4B896" stroke-width="0.4"/>
  <rect x="38" y="85" width="34" height="33" fill="#2C3E50" stroke="#1A2A38" stroke-width="0.5"/>
  <line x1="55" y1="85" x2="55" y2="118" stroke="#1A2A38" stroke-width="0.3" opacity="0.4"/>
  <rect x="40" y="118" width="10" height="55" fill="#2C3E50" stroke="#1A2A38" stroke-width="0.4"/>
  <rect x="60" y="118" width="10" height="55" fill="#2C3E50" stroke="#1A2A38" stroke-width="0.4"/>
  <ellipse cx="45" cy="180" rx="8" ry="5.5" fill="#5C4A3A" stroke="#3D3024" stroke-width="0.4"/>
  <ellipse cx="65" cy="180" rx="8" ry="5.5" fill="#5C4A3A" stroke="#3D3024" stroke-width="0.4"/>
</svg>
