<?xml version="1.0" encoding="UTF-8"?>
<svg xmlns="http://www.w3.org/2000/svg" viewBox="0 0 110 220" width="110" height="220">
  <ellipse cx="55" cy="212" rx="30" ry="3" fill="#000000" opacity="0.14"/>
  <circle cx="55" cy="30" r="19" fill="#E8D4B8"/>
  <circle cx="55" cy="30" r="19" fill="none" stroke="#D4B896" stroke-width="0.5" opacity="0.5"/>
  <circle cx="47" cy="29" r="1.8" fill="#3D2817"/>
  <circle cx="63" cy="29" r="1.8" fill="#3D2817"/>
  <circle cx="47.5" cy="28" r="0.6" fill="#FFFFFF" opacity="0.7"/>
  <circle cx="63.5" cy="28" r="0.6" fill="#FFFFFF" opacity="0.7"/>
  <path d="M 44 26 Q 47 24 50 26" fill="none" stroke="#3D2817" stroke-width="0.7" stroke-linecap="round"/>
  <path d="M 60 26 Q 63 24 66 26" fill="none" stroke="#3D2817" stroke-width="0.7" stroke-linecap="round"/>
  <path d="M 49 40 Q 55 43 61 40" stroke="#B8906C" stroke-width="1.2" fill="none" stroke-linecap="round"/>
  <circle cx="47" cy="29" r="3" fill="none" stroke="#1A1A1A" stroke-width="1"/>
  <circle cx="63" cy="29" r="3" fill="none" stroke="#1A1A1A" stroke-width="1"/>
  <line x1="50" y1="29" x2="60" y2="29" stroke="#1A1A1A" stroke-width="0.7"/>
  <ellipse cx="55" cy="14" rx="18" ry="13" fill="#3D2817"/>
  <path d="M 33 22 Q 28 38 30 56 Q 33 60 38 58 L 38 30" fill="#3D2817" stroke="#1A0F08" stroke-width="0.3"/>
  <path d="M 77 22 Q 82 38 80 56 Q 77 60 72 58 L 72 30" fill="#3D2817" stroke="#1A0F08" stroke-width="0.3"/>
  <ellipse cx="55" cy="42" rx="9" ry="6" fill="#3D2817"/>
  <path d="M 46 42 Q 55 47 64 42 Q 64 47 60 49 Q 55 50 50 49 Q 46 47 46 42 Z" fill="#3D2817"/>
  <rect x="50" y="46" width="10" height="8" fill="#E8D4B8" stroke="#D4B896" stroke-width="0.4"/>
  <path d="M 22 88 Q 22 52 55 52 Q 88 52 88 88 L 88 92 L 22 92 Z" fill="#1A1A1A" stroke="#0A0A0B" stroke-width="0.5"/>
  <path d="M 22 92 L 88 92 L 88 96 Q 88 124 55 124 Q 22 124 22 96 Z" fill="#2C3E50" stroke="#1A2A38" stroke-width="0.5"/>
  <rect x="22" y="62" width="13" height="55" rx="6" fill="#1A1A1A" stroke="#0A0A0B" stroke-width="0.4"/>
  <rect x="75" y="62" width="13" height="55" rx="6" fill="#1A1A1A" stroke="#0A0A0B" stroke-width="0.4"/>
  <circle cx="28" cy="120" r="5" fill="#E8D4B8" stroke="#D4B896" stroke-width="0.4"/>
  <circle cx="82" cy="120" r="5" fill="#E8D4B8" stroke="#D4B896" stroke-width="0.4"/>
  <rect x="40" y="124" width="14" height="56" rx="2" fill="#2C3E50" stroke="#1A2A38" stroke-width="0.4"/>
  <rect x="56" y="124" width="14" height="56" rx="2" fill="#2C3E50" stroke="#1A2A38" stroke-width="0.4"/>
  <ellipse cx="47" cy="186" rx="9" ry="6" fill="#2A2A2A" stroke="#000000" stroke-width="0.3" opacity="0.85"/>
  <ellipse cx="63" cy="186" rx="9" ry="6" fill="#2A2A2A" stroke="#000000" stroke-width="0.3" opacity="0.85"/>
  <path d="M 36 60 L 55 68 L 74 60 L 70 64 L 55 72 L 40 64 Z" fill="#8B0000" stroke="#5A0000" stroke-width="0.4"/>
</svg>
