<?xml version="1.0" encoding="UTF-8"?>
<svg xmlns="http://www.w3.org/2000/svg" viewBox="0 0 110 220" width="110" height="220">
  <ellipse cx="55" cy="212" rx="30" ry="3" fill="#000000" opacity="0.14"/>
  <circle cx="55" cy="30" r="19" fill="#E8D4B8"/>
  <circle cx="55" cy="30" r="19" fill="none" stroke="#D4B896" stroke-width="0.5" opacity="0.5"/>
  <ellipse cx="55" cy="22" rx="14" ry="8" fill="#1A1A1A"/>
  <path d="M 36 12 Q 36 2 55 0 Q 74 2 74 12 L 80 14 Q 78 8 72 6 Q 70 2 55 1 Q 40 2 38 6 Q 32 8 30 14 Z" fill="#FFFFFF" stroke="#C0C0C0" stroke-width="0.5"/>
  <ellipse cx="55" cy="6" rx="20" ry="5" fill="#FFFFFF" stroke="#C0C0C0" stroke-width="0.4"/>
  <ellipse cx="55" cy="3" rx="14" ry="3" fill="#F0F0F0" opacity="0.7"/>
  <circle cx="47" cy="29" r="1.8" fill="#3D2817"/>
  <circle cx="63" cy="29" r="1.8" fill="#3D2817"/>
  <circle cx="47.5" cy="28" r="0.6" fill="#FFFFFF" opacity="0.7"/>
  <circle cx="63.5" cy="28" r="0.6" fill="#FFFFFF" opacity="0.7"/>
  <path d="M 44 26 Q 47 24 50 26" fill="none" stroke="#3D2817" stroke-width="0.7" stroke-linecap="round"/>
  <path d="M 60 26 Q 63 24 66 26" fill="none" stroke="#3D2817" stroke-width="0.7" stroke-linecap="round"/>
  <path d="M 49 40 Q 55 43 61 40" stroke="#B8906C" stroke-width="1.2" fill="none" stroke-linecap="round"/>
  <rect x="36" y="52" width="38" height="33" fill="#D4C4AE" stroke="#A88C6A" stroke-width="0.5"/>
  <path d="M 38 52 L 38 85 L 72 85 L 72 52" fill="#FFFFFF" stroke="#C8C8C8" stroke-width="0.5"/>
  <path d="M 38 52 L 36 49 L 42 47 L 44 52" fill="#FFFFFF" stroke="#C8C8C8" stroke-width="0.4"/>
  <path d="M 72 52 L 74 49 L 68 47 L 66 52" fill="#FFFFFF" stroke="#C8C8C8" stroke-width="0.4"/>
  <line x1="55" y1="55" x2="55" y2="80" stroke="#C8C8C8" stroke-width="0.4"/>
  <circle cx="55" cy="62" r="1" fill="#A88C6A"/>
  <circle cx="55" cy="72" r="1" fill="#A88C6A"/>
  <rect x="38" y="85" width="34" height="33" fill="#2C2C2C" stroke="#1A1A1A" stroke-width="0.5"/>
  <line x1="55" y1="85" x2="55" y2="118" stroke="#1A1A1A" stroke-width="0.3" opacity="0.4"/>
</svg>
