<?xml version="1.0" encoding="UTF-8"?>
<svg xmlns="http://www.w3.org/2000/svg" viewBox="0 0 110 220" width="110" height="220">
  <ellipse cx="55" cy="212" rx="30" ry="3" fill="#000000" opacity="0.14"/>
  <circle cx="55" cy="30" r="19" fill="#E8B88B"/>
  <circle cx="55" cy="30" r="19" fill="none" stroke="#C4906C" stroke-width="0.5" opacity="0.5"/>
  <circle cx="47" cy="29" r="1.8" fill="#3D2817"/>
  <circle cx="63" cy="29" r="1.8" fill="#3D2817"/>
  <circle cx="47.5" cy="28" r="0.6" fill="#FFFFFF" opacity="0.7"/>
  <circle cx="63.5" cy="28" r="0.6" fill="#FFFFFF" opacity="0.7"/>
  <path d="M 44 26 Q 47 24 50 26" fill="none" stroke="#3D2817" stroke-width="0.7" stroke-linecap="round"/>
  <path d="M 60 26 Q 63 24 66 26" fill="none" stroke="#3D2817" stroke-width="0.7" stroke-linecap="round"/>
  <path d="M 49 40 Q 55 43 61 40" stroke="#B8906C" stroke-width="1.2" fill="none" stroke-linecap="round"/>
  <path d="M 32 12 Q 32 0 55 0 Q 78 0 78 12 Q 80 18 76 22 L 70 22 L 68 16 L 42 16 L 40 22 L 34 22 Q 30 18 32 12 Z" fill="#FF8B7A" stroke="#D45A48" stroke-width="0.5"/>
  <ellipse cx="55" cy="6" rx="22" ry="6" fill="#FF8B7A"/>
  <path d="M 36 8 Q 55 4 74 8" fill="none" stroke="#D45A48" stroke-width="0.4"/>
  <rect x="50" y="46" width="10" height="8" fill="#E8B88B" stroke="#C4906C" stroke-width="0.4"/>
  <path d="M 22 88 Q 22 52 55 52 Q 88 52 88 88 L 88 92 L 22 92 Z" fill="#F8F4ED" stroke="#D4D0C8" stroke-width="0.5"/>
  <path d="M 22 92 L 88 92 L 88 96 Q 88 124 55 124 Q 22 124 22 96 Z" fill="#F8F4ED" stroke="#D4D0C8" stroke-width="0.5"/>
  <rect x="22" y="62" width="13" height="55" rx="6" fill="#F8F4ED" stroke="#D4D0C8" stroke-width="0.4"/>
  <rect x="75" y="62" width="13" height="55" rx="6" fill="#F8F4ED" stroke="#D4D0C8" stroke-width="0.4"/>
  <circle cx="28" cy="120" r="5" fill="#E8B88B" stroke="#C4906C" stroke-width="0.4"/>
  <circle cx="82" cy="120" r="5" fill="#E8B88B" stroke="#C4906C" stroke-width="0.4"/>
  <rect x="40" y="124" width="14" height="56" rx="2" fill="#F8F4ED" stroke="#D4D0C8" stroke-width="0.4"/>
  <rect x="56" y="124" width="14" height="56" rx="2" fill="#F8F4ED" stroke="#D4D0C8" stroke-width="0.4"/>
  <ellipse cx="47" cy="186" rx="9" ry="6" fill="#C4A57A" stroke="#000000" stroke-width="0.3" opacity="0.85"/>
  <ellipse cx="63" cy="186" rx="9" ry="6" fill="#C4A57A" stroke="#000000" stroke-width="0.3" opacity="0.85"/>
</svg>
