<?xml version="1.0" encoding="UTF-8"?>
<svg xmlns="http://www.w3.org/2000/svg" viewBox="0 0 110 220" width="110" height="220">
  <ellipse cx="55" cy="212" rx="30" ry="3" fill="#000000" opacity="0.14"/>
  <circle cx="55" cy="30" r="19" fill="#E8B88B"/>
  <circle cx="55" cy="30" r="19" fill="none" stroke="#C4906C" stroke-width="0.5" opacity="0.5"/>
  <path d="M 32 12 Q 32 0 55 0 Q 78 0 78 12 Q 80 18 76 22 L 70 22 L 68 16 L 42 16 L 40 22 L 34 22 Q 30 18 32 12 Z" fill="#FF8B7A" stroke="#D45A48" stroke-width="0.5"/>
  <ellipse cx="55" cy="6" rx="22" ry="6" fill="#FF8B7A"/>
  <path d="M 36 8 Q 55 4 74 8" fill="none" stroke="#D45A48" stroke-width="0.4"/>
  <path d="M 38 12 Q 55 16 72 12" fill="none" stroke="#D45A48" stroke-width="0.3" opacity="0.6"/>
  <ellipse cx="60" cy="20" rx="3" ry="6" fill="#D45A48" opacity="0.5"/>
  <circle cx="47" cy="29" r="1.7" fill="#3D2817"/>
  <circle cx="63" cy="29" r="1.7" fill="#3D2817"/>
  <circle cx="47.4" cy="28" r="0.5" fill="#FFFFFF" opacity="0.7"/>
  <circle cx="63.4" cy="28" r="0.5" fill="#FFFFFF" opacity="0.7"/>
  <path d="M 44 26 Q 47 24 50 26" fill="none" stroke="#5C4A3A" stroke-width="0.5" stroke-linecap="round"/>
  <path d="M 60 26 Q 63 24 66 26" fill="none" stroke="#5C4A3A" stroke-width="0.5" stroke-linecap="round"/>
  <path d="M 49 40 Q 55 43 61 40" stroke="#C49070" stroke-width="1.2" fill="none" stroke-linecap="round"/>
  <path d="M 30 50 L 80 50 Q 84 50 84 56 L 84 120 L 78 122 L 32 122 L 26 120 L 26 56 Q 26 50 30 50 Z" fill="#F8F4ED" stroke="#D4D0C8" stroke-width="0.5"/>
  <path d="M 55 50 L 55 122" stroke="#D4D0C8" stroke-width="0.4" opacity="0.6"/>
  <path d="M 30 56 L 80 56" stroke="#D4D0C8" stroke-width="0.3" opacity="0.5"/>
  <rect x="22" y="58" width="12" height="60" rx="6" fill="#F8F4ED" stroke="#D4D0C8" stroke-width="0.4"/>
  <rect x="76" y="58" width="12" height="60" rx="6" fill="#F8F4ED" stroke="#D4D0C8" stroke-width="0.4"/>
  <circle cx="28" cy="123" r="4.5" fill="#E8B88B" stroke="#C4906C" stroke-width="0.4"/>
  <circle cx="82" cy="123" r="4.5" fill="#E8B88B" stroke="#C4906C" stroke-width="0.4"/>
  <rect x="38" y="120" width="34" height="55" fill="#F8F4ED" stroke="#D4D0C8" stroke-width="0.4"/>
  <rect x="40" y="170" width="10" height="6" fill="#E8B88B" stroke="#C4906C" stroke-width="0.3"/>
  <rect x="60" y="170" width="10" height="6" fill="#E8B88B" stroke="#C4906C" stroke-width="0.3"/>
  <ellipse cx="45" cy="180" rx="7" ry="3.5" fill="#C4A57A" stroke="#8B6F47" stroke-width="0.4"/>
  <ellipse cx="65" cy="180" rx="7" ry="3.5" fill="#C4A57A" stroke="#8B6F47" stroke-width="0.4"/>
  <line x1="40" y1="180" x2="50" y2="180" stroke="#8B6F47" stroke-width="0.4"/>
  <line x1="60" y1="180" x2="70" y2="180" stroke="#8B6F47" stroke-width="0.4"/>
</svg>
