<?xml version="1.0" encoding="UTF-8"?>
<svg xmlns="http://www.w3.org/2000/svg" viewBox="0 0 110 220" width="110" height="220">
  <ellipse cx="55" cy="212" rx="30" ry="3" fill="#000000" opacity="0.14"/>
  <circle cx="55" cy="30" r="19" fill="#E8D4B8"/>
  <circle cx="55" cy="30" r="19" fill="none" stroke="#D4B896" stroke-width="0.5" opacity="0.5"/>
  <ellipse cx="55" cy="16" rx="15" ry="9" fill="#7D6850"/>
  <path d="M 40 18 Q 36 28 38 38" fill="#7D6850" stroke="#5C4A3A" stroke-width="0.3" opacity="0.7"/>
  <path d="M 70 18 Q 74 28 72 38" fill="#7D6850" stroke="#5C4A3A" stroke-width="0.3" opacity="0.7"/>
  <line x1="42" y1="14" x2="46" y2="18" stroke="#C4B896" stroke-width="0.4" opacity="0.7"/>
  <line x1="50" y1="11" x2="52" y2="15" stroke="#C4B896" stroke-width="0.4" opacity="0.7"/>
  <line x1="60" y1="12" x2="62" y2="16" stroke="#C4B896" stroke-width="0.4" opacity="0.7"/>
  <line x1="68" y1="14" x2="70" y2="18" stroke="#C4B896" stroke-width="0.4" opacity="0.7"/>
  <circle cx="47" cy="29" r="3" fill="none" stroke="#8B6F47" stroke-width="1.3"/>
  <circle cx="63" cy="29" r="3" fill="none" stroke="#8B6F47" stroke-width="1.3"/>
  <line x1="50" y1="29" x2="60" y2="29" stroke="#8B6F47" stroke-width="0.8"/>
  <circle cx="47" cy="29" r="1.4" fill="#3D2817"/>
  <circle cx="63" cy="29" r="1.4" fill="#3D2817"/>
  <circle cx="47.4" cy="28.5" r="0.5" fill="#FFFFFF" opacity="0.8"/>
  <circle cx="63.4" cy="28.5" r="0.5" fill="#FFFFFF" opacity="0.8"/>
  <path d="M 44 25 Q 47 23 50 25" fill="none" stroke="#3D2817" stroke-width="0.6" stroke-linecap="round"/>
  <path d="M 60 25 Q 63 23 66 25" fill="none" stroke="#3D2817" stroke-width="0.6" stroke-linecap="round"/>
  <path d="M 49 40 Q 55 42 61 40" stroke="#B8906C" stroke-width="1.1" fill="none" stroke-linecap="round"/>
  <rect x="36" y="52" width="38" height="33" fill="#FFFFFF" stroke="#D4D4D4" stroke-width="0.4"/>
  <path d="M 30 50 L 36 50 L 36 90 L 28 90 Z" fill="#A89274" stroke="#7D6648" stroke-width="0.4"/>
  <path d="M 80 50 L 74 50 L 74 90 L 82 90 Z" fill="#A89274" stroke="#7D6648" stroke-width="0.4"/>
  <path d="M 50 52 L 60 52 L 56 60 L 50 56 Z" fill="#7D6648" opacity="0.7"/>
  <path d="M 28 100 L 34 95 L 34 115 L 28 120 Z" fill="#5C4A3A" stroke="#3D3024" stroke-width="0.4"/>
  <line x1="31" y1="100" x2="31" y2="118" stroke="#FFFFFF" stroke-width="0.4" opacity="0.5"/>
  <rect x="38" y="85" width="34" height="33" fill="#6B5A6B" stroke="#3D2A3D" stroke-width="0.5"/>
  <line x1="55" y1="85" x2="55" y2="118" stroke="#3D2A3D" stroke-width="0.3" opacity="0.4"/>
  <line x1="40" y1="92" x2="70" y2="92" stroke="#3D2A3D" stroke-width="0.2" opacity="0.4"/>
  <line x1="40" y1="100" x2="70" y2="100" stroke="#3D2A3D" stroke-width="0.2" opacity="0.4"/>
  <line x1="40" y1="108" x2="70" y2="108" stroke="#3D2A3D" stroke-width="0.2" opacity="0.4"/>
</svg>
