<?xml version="1.0" encoding="UTF-8"?>
<svg xmlns="http://www.w3.org/2000/svg" viewBox="0 0 110 220" width="110" height="220">
  <ellipse cx="55" cy="212" rx="30" ry="3" fill="#000000" opacity="0.14"/>
  <circle cx="55" cy="30" r="19" fill="#D4A878"/>
  <circle cx="55" cy="30" r="19" fill="none" stroke="#A88454" stroke-width="0.5" opacity="0.5"/>
  <ellipse cx="55" cy="14" rx="17" ry="11" fill="#5C4A3A"/>
  <path d="M 38 20 Q 32 30 34 50 Q 38 54 42 52 L 42 26" fill="#5C4A3A" stroke="#3D3024" stroke-width="0.3"/>
  <path d="M 72 20 Q 78 30 76 50 Q 72 54 68 52 L 68 26" fill="#5C4A3A" stroke="#3D3024" stroke-width="0.3"/>
  <rect x="36" y="14" width="38" height="6" rx="2" fill="#3D5C7F" stroke="#1F3A50" stroke-width="0.4"/>
  <line x1="38" y1="17" x2="72" y2="17" stroke="#FFFFFF" stroke-width="0.3" opacity="0.5"/>
  <circle cx="47" cy="29" r="1.7" fill="#3D2817"/>
  <circle cx="63" cy="29" r="1.7" fill="#3D2817"/>
  <circle cx="47.4" cy="28" r="0.5" fill="#FFFFFF" opacity="0.7"/>
  <circle cx="63.4" cy="28" r="0.5" fill="#FFFFFF" opacity="0.7"/>
  <path d="M 44 25 Q 47 23 50 25" fill="none" stroke="#3D2817" stroke-width="0.6" stroke-linecap="round"/>
  <path d="M 60 25 Q 63 23 66 25" fill="none" stroke="#3D2817" stroke-width="0.6" stroke-linecap="round"/>
  <path d="M 49 40 Q 55 42 61 40" stroke="#A06850" stroke-width="1.1" fill="none" stroke-linecap="round"/>
  <rect x="38" y="52" width="34" height="30" fill="#556B7F" stroke="#3D4A5C" stroke-width="0.5"/>
  <path d="M 42 54 Q 55 50 68 54" fill="#3D4A5C" opacity="0.3"/>
  <rect x="34" y="78" width="42" height="6" rx="1" fill="#E89030" stroke="#A86010" stroke-width="0.5"/>
  <rect x="34" y="84" width="42" height="3" fill="#A86010"/>
  <line x1="40" y1="84" x2="40" y2="92" stroke="#A86010" stroke-width="1.5"/>
  <line x1="55" y1="84" x2="55" y2="90" stroke="#A86010" stroke-width="1.5"/>
  <line x1="70" y1="84" x2="70" y2="92" stroke="#A86010" stroke-width="1.5"/>
  <ellipse cx="76" cy="86" rx="2" ry="3" fill="#C0C0C0" stroke="#5C5C5C" stroke-width="0.3"/>
  <path d="M 30 60 Q 22 72 22 90 Q 22 100 26 102 Q 30 100 28 90 Q 26 72 32 64 Z" fill="#E89030" stroke="#A86010" stroke-width="0.4"/>
  <path d="M 24 78 Q 22 84 22 92" fill="none" stroke="#FFFFFF" stroke-width="0.3" opacity="0.7"/>
  <path d="M 26 80 Q 24 86 24 94" fill="none" stroke="#FFFFFF" stroke-width="0.3" opacity="0.7"/>
  <rect x="38" y="87" width="34" height="20" fill="#1A1A1A" stroke="#0A0A0B" stroke-width="0.5"/>
  <line x1="55" y1="87" x2="55" y2="107" stroke="#0A0A0B" stroke-width="0.3" opacity="0.4"/>
</svg>
